<?xml version="1.0" standalone="no"?>
<!DOCTYPE svg PUBLIC "-//W3C//DTD SVG 20010904//EN"
 "http://www.w3.org/TR/2001/REC-SVG-20010904/DTD/svg10.dtd">
<svg version="1.0" xmlns="http://www.w3.org/2000/svg"
 width="100.000000pt" height="100.000000pt" viewBox="0 0 100.000000 100.000000"
 preserveAspectRatio="xMidYMid meet">

<g transform="translate(0.000000,100.000000) scale(0.100000,-0.100000)"
fill="#ffff" stroke="none">
<path d="M105 929 c-4 -6 54 -102 129 -215 75 -112 136 -208 136 -214 0 -6
-61 -102 -136 -214 -75 -113 -133 -209 -129 -215 3 -7 40 -11 89 -11 l82 0
110 160 c60 87 111 159 114 159 3 0 54 -72 114 -159 l110 -160 82 0 c49 0 86
4 89 11 4 6 -54 102 -129 215 -75 112 -136 208 -136 214 0 6 61 102 136 214
75 113 133 209 129 215 -3 7 -40 11 -89 11 l-82 0 -110 -160 c-60 -87 -111
-159 -114 -159 -3 0 -54 72 -114 159 l-110 160 -82 0 c-49 0 -86 -4 -89 -11z"/>
</g>
</svg>
